name rise30.9205peak61.366fall85.3838.mot
datacolumns 19
datarows 27
range 5.80331000000000 5.84664300000000
endheader
time	ground_force1_vx	ground_force1_vy	ground_force1_vz	ground_force1_px	ground_force1_py	ground_force1_pz	ground_force2_vx	ground_force2_vy	ground_force2_vz	ground_force2_px	ground_force2_py	ground_force2_pz	ground_torque1_x	ground_torque1_y	ground_torque1_z	ground_torque2_x	ground_torque2_y	ground_torque2_z	
5.80331000000000	3.49296400000000	693.20224399999995	35.16720700000000	0.24077800000000	0.00000000000000	0.08919400000000	0.00000000000000	0.00000000000000	0.00000000000000	0.00000000000000	0.00000000000000	0.00000000000000	0.00000000000000	15.26224900000000	0.00000000000000	0.00000000000000	0.00000000000000	0.00000000000000	
5.80497700000000	3.19336800000000	693.57893799999999	35.14977700000000	0.24028800000000	0.00000000000000	0.08914200000000	0.00000000000000	0.00000000000000	0.00000000000000	0.00000000000000	0.00000000000000	0.00000000000000	0.00000000000000	15.30571800000000	0.00000000000000	0.00000000000000	0.00000000000000	0.00000000000000	
5.80665000000000	2.88591700000000	693.98639400000002	35.13485700000000	0.23977800000000	0.00000000000000	0.08909100000000	0.00000000000000	0.00000000000000	0.00000000000000	0.00000000000000	0.00000000000000	0.00000000000000	0.00000000000000	15.35185500000000	0.00000000000000	0.00000000000000	0.00000000000000	0.00000000000000	
5.80831500000000	2.57029600000000	694.42507799999998	35.12254600000000	0.23924800000000	0.00000000000000	0.08904000000000	0.00000000000000	0.00000000000000	0.00000000000000	0.00000000000000	0.00000000000000	0.00000000000000	0.00000000000000	15.40065400000000	0.00000000000000	0.00000000000000	0.00000000000000	0.00000000000000	
5.80998100000000	2.24621900000000	694.89554399999997	35.11295500000000	0.23869400000000	0.00000000000000	0.08899100000000	0.00000000000000	0.00000000000000	0.00000000000000	0.00000000000000	0.00000000000000	0.00000000000000	0.00000000000000	15.45211200000000	0.00000000000000	0.00000000000000	0.00000000000000	0.00000000000000	
5.81164600000000	1.91343500000000	695.39842599999997	35.10620100000000	0.23811600000000	0.00000000000000	0.08894400000000	0.00000000000000	0.00000000000000	0.00000000000000	0.00000000000000	0.00000000000000	0.00000000000000	0.00000000000000	15.50622700000000	0.00000000000000	0.00000000000000	0.00000000000000	0.00000000000000	
5.81331500000000	1.57172400000000	695.93443700000000	35.10240900000000	0.23751200000000	0.00000000000000	0.08889700000000	0.00000000000000	0.00000000000000	0.00000000000000	0.00000000000000	0.00000000000000	0.00000000000000	0.00000000000000	15.56299900000000	0.00000000000000	0.00000000000000	0.00000000000000	0.00000000000000	
5.81498300000000	1.22089900000000	696.50436600000000	35.10170900000000	0.23688000000000	0.00000000000000	0.08885300000000	0.00000000000000	0.00000000000000	0.00000000000000	0.00000000000000	0.00000000000000	0.00000000000000	0.00000000000000	15.62243100000000	0.00000000000000	0.00000000000000	0.00000000000000	0.00000000000000	
5.81664300000000	0.86080800000000	697.10906899999998	35.10423900000000	0.23621900000000	0.00000000000000	0.08881000000000	0.00000000000000	0.00000000000000	0.00000000000000	0.00000000000000	0.00000000000000	0.00000000000000	0.00000000000000	15.68452800000000	0.00000000000000	0.00000000000000	0.00000000000000	0.00000000000000	
5.81831200000000	0.49133400000000	697.74946899999998	35.11014100000000	0.23552800000000	0.00000000000000	0.08876900000000	0.00000000000000	0.00000000000000	0.00000000000000	0.00000000000000	0.00000000000000	0.00000000000000	0.00000000000000	15.74929400000000	0.00000000000000	0.00000000000000	0.00000000000000	0.00000000000000	
5.81998200000000	0.11239600000000	698.42655000000002	35.11956200000000	0.23480700000000	0.00000000000000	0.08872900000000	0.00000000000000	0.00000000000000	0.00000000000000	0.00000000000000	0.00000000000000	0.00000000000000	0.00000000000000	15.81673500000000	0.00000000000000	0.00000000000000	0.00000000000000	0.00000000000000	
5.82164800000000	-0.27605400000000	699.14134700000000	35.13265100000000	0.23405400000000	0.00000000000000	0.08869200000000	0.00000000000000	0.00000000000000	0.00000000000000	0.00000000000000	0.00000000000000	0.00000000000000	0.00000000000000	15.88685800000000	0.00000000000000	0.00000000000000	0.00000000000000	0.00000000000000	
5.82331500000000	-0.67402600000000	699.89494400000001	35.14956400000000	0.23327000000000	0.00000000000000	0.08865700000000	0.00000000000000	0.00000000000000	0.00000000000000	0.00000000000000	0.00000000000000	0.00000000000000	0.00000000000000	15.95966900000000	0.00000000000000	0.00000000000000	0.00000000000000	0.00000000000000	
5.82498000000000	-1.08149400000000	700.68846599999995	35.17045600000000	0.23245300000000	0.00000000000000	0.08862400000000	0.00000000000000	0.00000000000000	0.00000000000000	0.00000000000000	0.00000000000000	0.00000000000000	0.00000000000000	16.03517400000000	0.00000000000000	0.00000000000000	0.00000000000000	0.00000000000000	
5.82664400000000	-1.49839900000000	701.52307199999996	35.19548800000000	0.23160500000000	0.00000000000000	0.08859300000000	0.00000000000000	0.00000000000000	0.00000000000000	0.00000000000000	0.00000000000000	0.00000000000000	0.00000000000000	16.11337800000000	0.00000000000000	0.00000000000000	0.00000000000000	0.00000000000000	
5.82831500000000	-1.92464400000000	702.39994600000000	35.22482000000000	0.23072400000000	0.00000000000000	0.08856400000000	0.00000000000000	0.00000000000000	0.00000000000000	0.00000000000000	0.00000000000000	0.00000000000000	0.00000000000000	16.19428300000000	0.00000000000000	0.00000000000000	0.00000000000000	0.00000000000000	
5.82997500000000	-2.36009700000000	703.32029199999999	35.25861500000000	0.22981200000000	0.00000000000000	0.08853800000000	0.00000000000000	0.00000000000000	0.00000000000000	0.00000000000000	0.00000000000000	0.00000000000000	0.00000000000000	16.27789200000000	0.00000000000000	0.00000000000000	0.00000000000000	0.00000000000000	
5.83164500000000	-2.80459300000000	704.28531999999996	35.29703700000000	0.22887000000000	0.00000000000000	0.08851300000000	0.00000000000000	0.00000000000000	0.00000000000000	0.00000000000000	0.00000000000000	0.00000000000000	0.00000000000000	16.36420400000000	0.00000000000000	0.00000000000000	0.00000000000000	0.00000000000000	
5.83331700000000	-3.25793200000000	705.29624699999999	35.34025100000000	0.22789700000000	0.00000000000000	0.08849100000000	0.00000000000000	0.00000000000000	0.00000000000000	0.00000000000000	0.00000000000000	0.00000000000000	0.00000000000000	16.45321600000000	0.00000000000000	0.00000000000000	0.00000000000000	0.00000000000000	
5.83497600000000	-3.71987900000000	706.35427900000002	35.38842100000000	0.22689600000000	0.00000000000000	0.08847100000000	0.00000000000000	0.00000000000000	0.00000000000000	0.00000000000000	0.00000000000000	0.00000000000000	0.00000000000000	16.54492300000000	0.00000000000000	0.00000000000000	0.00000000000000	0.00000000000000	
5.83664500000000	-4.19017000000000	707.46060699999998	35.44171300000000	0.22586600000000	0.00000000000000	0.08845300000000	0.00000000000000	0.00000000000000	0.00000000000000	0.00000000000000	0.00000000000000	0.00000000000000	0.00000000000000	16.63931400000000	0.00000000000000	0.00000000000000	0.00000000000000	0.00000000000000	
5.83831600000000	-4.66850500000000	708.61639700000001	35.50029200000000	0.22481000000000	0.00000000000000	0.08843700000000	0.00000000000000	0.00000000000000	0.00000000000000	0.00000000000000	0.00000000000000	0.00000000000000	0.00000000000000	16.73637700000000	0.00000000000000	0.00000000000000	0.00000000000000	0.00000000000000	
5.83998100000000	-5.15455700000000	709.82277999999997	35.56432100000000	0.22372800000000	0.00000000000000	0.08842300000000	0.00000000000000	0.00000000000000	0.00000000000000	0.00000000000000	0.00000000000000	0.00000000000000	0.00000000000000	16.83609500000000	0.00000000000000	0.00000000000000	0.00000000000000	0.00000000000000	
5.84164500000000	-5.64796600000000	711.08084199999996	35.63396600000000	0.22262300000000	0.00000000000000	0.08841100000000	0.00000000000000	0.00000000000000	0.00000000000000	0.00000000000000	0.00000000000000	0.00000000000000	0.00000000000000	16.93844500000000	0.00000000000000	0.00000000000000	0.00000000000000	0.00000000000000	
5.84331000000000	-6.14834600000000	712.39161799999999	35.70938700000000	0.22149700000000	0.00000000000000	0.08840100000000	0.00000000000000	0.00000000000000	0.00000000000000	0.00000000000000	0.00000000000000	0.00000000000000	0.00000000000000	17.04340200000000	0.00000000000000	0.00000000000000	0.00000000000000	0.00000000000000	
5.84498800000000	-6.65528200000000	713.75607700000000	35.79074700000000	0.22035000000000	0.00000000000000	0.08839300000000	0.00000000000000	0.00000000000000	0.00000000000000	0.00000000000000	0.00000000000000	0.00000000000000	0.00000000000000	17.15093400000000	0.00000000000000	0.00000000000000	0.00000000000000	0.00000000000000	
5.84664300000000	-7.16833500000000	715.17511900000000	35.87820600000000	0.21918600000000	0.00000000000000	0.08838600000000	0.00000000000000	0.00000000000000	0.00000000000000	0.00000000000000	0.00000000000000	0.00000000000000	0.00000000000000	17.26100400000000	0.00000000000000	0.00000000000000	0.00000000000000	0.00000000000000	
